<?xml version="1.0" encoding="utf-8"?>
<svg version="1.1" xmlns:xlink="http://www.w3.org/1999/xlink" width="163px" height="25px" xmlns="http://www.w3.org/2000/svg">
  <g transform="matrix(1 0 0 1 -735 -250 )">
    <path d="M 735 250  L 898 250  L 898 275  L 735 275  L 735 250  " fill-rule="nonzero" fill="#cccccc" stroke="none" />
    <path d="M 737 252  L 896 252  L 896 273  L 737 273  L 737 252  " fill-rule="nonzero" fill="#ffffff" stroke="none" />
    <path d="M 821.635 257.5  C 820.585 257.5  819.76 256.675  819.76 255.625  C 819.76 254.575  820.585 253.75  821.635 253.75  C 822.685 253.75  823.51 254.575  823.51 255.625  C 823.51 256.675  822.685 257.5  821.635 257.5  " fill-rule="nonzero" fill="#cccccc" stroke="none" />
    <path d="M 738 273  L 738 262  L 777.5 257  L 832.8 271.159509202454  L 864.4 260  L 896 271.159509202454  L 896 273  L 738 273  " fill-rule="nonzero" fill="#169bd5" stroke="none" />
  </g>
</svg>