<?xml version="1.0" encoding="utf-8"?>
<svg version="1.1" xmlns:xlink="http://www.w3.org/1999/xlink" width="12px" height="12px" viewBox="21 282.5  12 12" xmlns="http://www.w3.org/2000/svg">
  <path d="M 27 282.5  C 30.36 282.5  33 285.14  33 288.5  C 33 291.86  30.36 294.5  27 294.5  C 23.64 294.5  21 291.86  21 288.5  C 21 285.14  23.64 282.5  27 282.5  Z " fill-rule="nonzero" fill="#ffffff" stroke="none" />
  <path d="M 27 283  C 30.08 283  32.5 285.42  32.5 288.5  C 32.5 291.58  30.08 294  27 294  C 23.92 294  21.5 291.58  21.5 288.5  C 21.5 285.42  23.92 283  27 283  Z " stroke-width="1" stroke="#797979" fill="none" />
  <path d="M 27 291.5  C 25.32 291.5  24 290.18  24 288.5  C 24 286.82  25.32 285.5  27 285.5  C 28.68 285.5  30 286.82  30 288.5  C 30 290.18  28.68 291.5  27 291.5  " fill-rule="nonzero" fill="#797979" stroke="none" />
</svg>