<?xml version="1.0" encoding="utf-8"?>
<svg version="1.1" xmlns:xlink="http://www.w3.org/1999/xlink" width="12px" height="12px" viewBox="543 282.5  12 12" xmlns="http://www.w3.org/2000/svg">
  <path d="M 549 282.5  C 552.36 282.5  555 285.14  555 288.5  C 555 291.86  552.36 294.5  549 294.5  C 545.64 294.5  543 291.86  543 288.5  C 543 285.14  545.64 282.5  549 282.5  Z " fill-rule="nonzero" fill="#ffffff" stroke="none" />
  <path d="M 549 283  C 552.08 283  554.5 285.42  554.5 288.5  C 554.5 291.58  552.08 294  549 294  C 545.92 294  543.5 291.58  543.5 288.5  C 543.5 285.42  545.92 283  549 283  Z " stroke-width="1" stroke="#797979" fill="none" />
  <path d="M 549 291.5  C 547.32 291.5  546 290.18  546 288.5  C 546 286.82  547.32 285.5  549 285.5  C 550.68 285.5  552 286.82  552 288.5  C 552 290.18  550.68 291.5  549 291.5  " fill-rule="nonzero" fill="#797979" stroke="none" />
</svg>