<?xml version="1.0" encoding="utf-8"?>
<svg version="1.1" xmlns:xlink="http://www.w3.org/1999/xlink" width="12px" height="12px" viewBox="543 318.5  12 12" xmlns="http://www.w3.org/2000/svg">
  <path d="M 549 318.5  C 552.36 318.5  555 321.14  555 324.5  C 555 327.86  552.36 330.5  549 330.5  C 545.64 330.5  543 327.86  543 324.5  C 543 321.14  545.64 318.5  549 318.5  Z " fill-rule="nonzero" fill="#ffffff" stroke="none" />
  <path d="M 549 319  C 552.08 319  554.5 321.42  554.5 324.5  C 554.5 327.58  552.08 330  549 330  C 545.92 330  543.5 327.58  543.5 324.5  C 543.5 321.42  545.92 319  549 319  Z " stroke-width="1" stroke="#797979" fill="none" />
  <path d="M 549 327.5  C 547.32 327.5  546 326.18  546 324.5  C 546 322.82  547.32 321.5  549 321.5  C 550.68 321.5  552 322.82  552 324.5  C 552 326.18  550.68 327.5  549 327.5  " fill-rule="nonzero" fill="#797979" stroke="none" />
</svg>