<?xml version="1.0" encoding="utf-8"?>
<svg version="1.1" xmlns:xlink="http://www.w3.org/1999/xlink" width="12px" height="12px" viewBox="822 282.5  12 12" xmlns="http://www.w3.org/2000/svg">
  <path d="M 828 282.5  C 831.36 282.5  834 285.14  834 288.5  C 834 291.86  831.36 294.5  828 294.5  C 824.64 294.5  822 291.86  822 288.5  C 822 285.14  824.64 282.5  828 282.5  Z " fill-rule="nonzero" fill="#ffffff" stroke="none" />
  <path d="M 828 283  C 831.08 283  833.5 285.42  833.5 288.5  C 833.5 291.58  831.08 294  828 294  C 824.92 294  822.5 291.58  822.5 288.5  C 822.5 285.42  824.92 283  828 283  Z " stroke-width="1" stroke="#797979" fill="none" />
  <path d="M 828 291.5  C 826.32 291.5  825 290.18  825 288.5  C 825 286.82  826.32 285.5  828 285.5  C 829.68 285.5  831 286.82  831 288.5  C 831 290.18  829.68 291.5  828 291.5  " fill-rule="nonzero" fill="#797979" stroke="none" />
</svg>