<?xml version="1.0" encoding="utf-8"?>
<svg version="1.1" xmlns:xlink="http://www.w3.org/1999/xlink" width="12px" height="12px" viewBox="627 315.5  12 12" xmlns="http://www.w3.org/2000/svg">
  <path d="M 633 315.5  C 636.36 315.5  639 318.14  639 321.5  C 639 324.86  636.36 327.5  633 327.5  C 629.64 327.5  627 324.86  627 321.5  C 627 318.14  629.64 315.5  633 315.5  Z " fill-rule="nonzero" fill="#ffffff" stroke="none" />
  <path d="M 633 316  C 636.08 316  638.5 318.42  638.5 321.5  C 638.5 324.58  636.08 327  633 327  C 629.92 327  627.5 324.58  627.5 321.5  C 627.5 318.42  629.92 316  633 316  Z " stroke-width="1" stroke="#797979" fill="none" />
  <path d="M 633 324.5  C 631.32 324.5  630 323.18  630 321.5  C 630 319.82  631.32 318.5  633 318.5  C 634.68 318.5  636 319.82  636 321.5  C 636 323.18  634.68 324.5  633 324.5  " fill-rule="nonzero" fill="#797979" stroke="none" />
</svg>