<?xml version="1.0" encoding="utf-8"?>
<svg version="1.1" xmlns:xlink="http://www.w3.org/1999/xlink" width="12px" height="12px" viewBox="409 324.5  12 12" xmlns="http://www.w3.org/2000/svg">
  <path d="M 415 324.5  C 418.36 324.5  421 327.14  421 330.5  C 421 333.86  418.36 336.5  415 336.5  C 411.64 336.5  409 333.86  409 330.5  C 409 327.14  411.64 324.5  415 324.5  Z " fill-rule="nonzero" fill="#ffffff" stroke="none" />
  <path d="M 415 325  C 418.08 325  420.5 327.42  420.5 330.5  C 420.5 333.58  418.08 336  415 336  C 411.92 336  409.5 333.58  409.5 330.5  C 409.5 327.42  411.92 325  415 325  Z " stroke-width="1" stroke="#797979" fill="none" />
  <path d="M 415 333.5  C 413.32 333.5  412 332.18  412 330.5  C 412 328.82  413.32 327.5  415 327.5  C 416.68 327.5  418 328.82  418 330.5  C 418 332.18  416.68 333.5  415 333.5  " fill-rule="nonzero" fill="#797979" stroke="none" />
</svg>