<?xml version="1.0" encoding="utf-8"?>
<svg version="1.1" xmlns:xlink="http://www.w3.org/1999/xlink" width="12px" height="12px" viewBox="652 324.5  12 12" xmlns="http://www.w3.org/2000/svg">
  <path d="M 658 324.5  C 661.36 324.5  664 327.14  664 330.5  C 664 333.86  661.36 336.5  658 336.5  C 654.64 336.5  652 333.86  652 330.5  C 652 327.14  654.64 324.5  658 324.5  Z " fill-rule="nonzero" fill="#ffffff" stroke="none" />
  <path d="M 658 325  C 661.08 325  663.5 327.42  663.5 330.5  C 663.5 333.58  661.08 336  658 336  C 654.92 336  652.5 333.58  652.5 330.5  C 652.5 327.42  654.92 325  658 325  Z " stroke-width="1" stroke="#797979" fill="none" />
  <path d="M 658 333.5  C 656.32 333.5  655 332.18  655 330.5  C 655 328.82  656.32 327.5  658 327.5  C 659.68 327.5  661 328.82  661 330.5  C 661 332.18  659.68 333.5  658 333.5  " fill-rule="nonzero" fill="#797979" stroke="none" />
</svg>