<?xml version="1.0" encoding="utf-8"?>
<svg version="1.1" xmlns:xlink="http://www.w3.org/1999/xlink" width="12px" height="12px" viewBox="130 288.5  12 12" xmlns="http://www.w3.org/2000/svg">
  <path d="M 136 288.5  C 139.36 288.5  142 291.14  142 294.5  C 142 297.86  139.36 300.5  136 300.5  C 132.64 300.5  130 297.86  130 294.5  C 130 291.14  132.64 288.5  136 288.5  Z " fill-rule="nonzero" fill="#ffffff" stroke="none" />
  <path d="M 136 289  C 139.08 289  141.5 291.42  141.5 294.5  C 141.5 297.58  139.08 300  136 300  C 132.92 300  130.5 297.58  130.5 294.5  C 130.5 291.42  132.92 289  136 289  Z " stroke-width="1" stroke="#797979" fill="none" />
  <path d="M 136 297.5  C 134.32 297.5  133 296.18  133 294.5  C 133 292.82  134.32 291.5  136 291.5  C 137.68 291.5  139 292.82  139 294.5  C 139 296.18  137.68 297.5  136 297.5  " fill-rule="nonzero" fill="#797979" stroke="none" />
</svg>