<?xml version="1.0" encoding="utf-8"?>
<svg version="1.1" xmlns:xlink="http://www.w3.org/1999/xlink" width="12px" height="12px" viewBox="130 324.5  12 12" xmlns="http://www.w3.org/2000/svg">
  <path d="M 136 324.5  C 139.36 324.5  142 327.14  142 330.5  C 142 333.86  139.36 336.5  136 336.5  C 132.64 336.5  130 333.86  130 330.5  C 130 327.14  132.64 324.5  136 324.5  Z " fill-rule="nonzero" fill="#ffffff" stroke="none" />
  <path d="M 136 325  C 139.08 325  141.5 327.42  141.5 330.5  C 141.5 333.58  139.08 336  136 336  C 132.92 336  130.5 333.58  130.5 330.5  C 130.5 327.42  132.92 325  136 325  Z " stroke-width="1" stroke="#797979" fill="none" />
  <path d="M 136 333.5  C 134.32 333.5  133 332.18  133 330.5  C 133 328.82  134.32 327.5  136 327.5  C 137.68 327.5  139 328.82  139 330.5  C 139 332.18  137.68 333.5  136 333.5  " fill-rule="nonzero" fill="#797979" stroke="none" />
</svg>