<?xml version="1.0" encoding="utf-8"?>
<svg version="1.1" xmlns:xlink="http://www.w3.org/1999/xlink" width="12px" height="12px" viewBox="409 288.5  12 12" xmlns="http://www.w3.org/2000/svg">
  <path d="M 415 288.5  C 418.36 288.5  421 291.14  421 294.5  C 421 297.86  418.36 300.5  415 300.5  C 411.64 300.5  409 297.86  409 294.5  C 409 291.14  411.64 288.5  415 288.5  Z " fill-rule="nonzero" fill="#ffffff" stroke="none" />
  <path d="M 415 289  C 418.08 289  420.5 291.42  420.5 294.5  C 420.5 297.58  418.08 300  415 300  C 411.92 300  409.5 297.58  409.5 294.5  C 409.5 291.42  411.92 289  415 289  Z " stroke-width="1" stroke="#797979" fill="none" />
  <path d="M 415 297.5  C 413.32 297.5  412 296.18  412 294.5  C 412 292.82  413.32 291.5  415 291.5  C 416.68 291.5  418 292.82  418 294.5  C 418 296.18  416.68 297.5  415 297.5  " fill-rule="nonzero" fill="#797979" stroke="none" />
</svg>