<?xml version="1.0" encoding="utf-8"?>
<svg version="1.1" xmlns:xlink="http://www.w3.org/1999/xlink" width="12px" height="12px" viewBox="652 288.5  12 12" xmlns="http://www.w3.org/2000/svg">
  <path d="M 658 288.5  C 661.36 288.5  664 291.14  664 294.5  C 664 297.86  661.36 300.5  658 300.5  C 654.64 300.5  652 297.86  652 294.5  C 652 291.14  654.64 288.5  658 288.5  Z " fill-rule="nonzero" fill="#ffffff" stroke="none" />
  <path d="M 658 289  C 661.08 289  663.5 291.42  663.5 294.5  C 663.5 297.58  661.08 300  658 300  C 654.92 300  652.5 297.58  652.5 294.5  C 652.5 291.42  654.92 289  658 289  Z " stroke-width="1" stroke="#797979" fill="none" />
  <path d="M 658 297.5  C 656.32 297.5  655 296.18  655 294.5  C 655 292.82  656.32 291.5  658 291.5  C 659.68 291.5  661 292.82  661 294.5  C 661 296.18  659.68 297.5  658 297.5  " fill-rule="nonzero" fill="#797979" stroke="none" />
</svg>