<?xml version="1.0" encoding="utf-8"?>
<svg version="1.1" xmlns:xlink="http://www.w3.org/1999/xlink" width="12px" height="12px" viewBox="20 384.5  12 12" xmlns="http://www.w3.org/2000/svg">
  <path d="M 26 384.5  C 29.36 384.5  32 387.14  32 390.5  C 32 393.86  29.36 396.5  26 396.5  C 22.64 396.5  20 393.86  20 390.5  C 20 387.14  22.64 384.5  26 384.5  Z " fill-rule="nonzero" fill="#ffffff" stroke="none" />
  <path d="M 26 385  C 29.08 385  31.5 387.42  31.5 390.5  C 31.5 393.58  29.08 396  26 396  C 22.92 396  20.5 393.58  20.5 390.5  C 20.5 387.42  22.92 385  26 385  Z " stroke-width="1" stroke="#797979" fill="none" />
  <path d="M 26 393.5  C 24.32 393.5  23 392.18  23 390.5  C 23 388.82  24.32 387.5  26 387.5  C 27.68 387.5  29 388.82  29 390.5  C 29 392.18  27.68 393.5  26 393.5  " fill-rule="nonzero" fill="#797979" stroke="none" />
</svg>