<?xml version="1.0" encoding="utf-8"?>
<svg version="1.1" xmlns:xlink="http://www.w3.org/1999/xlink" width="12px" height="12px" viewBox="20 352.5  12 12" xmlns="http://www.w3.org/2000/svg">
  <path d="M 26 352.5  C 29.36 352.5  32 355.14  32 358.5  C 32 361.86  29.36 364.5  26 364.5  C 22.64 364.5  20 361.86  20 358.5  C 20 355.14  22.64 352.5  26 352.5  Z " fill-rule="nonzero" fill="#ffffff" stroke="none" />
  <path d="M 26 353  C 29.08 353  31.5 355.42  31.5 358.5  C 31.5 361.58  29.08 364  26 364  C 22.92 364  20.5 361.58  20.5 358.5  C 20.5 355.42  22.92 353  26 353  Z " stroke-width="1" stroke="#797979" fill="none" />
  <path d="M 26 361.5  C 24.32 361.5  23 360.18  23 358.5  C 23 356.82  24.32 355.5  26 355.5  C 27.68 355.5  29 356.82  29 358.5  C 29 360.18  27.68 361.5  26 361.5  " fill-rule="nonzero" fill="#797979" stroke="none" />
</svg>