<?xml version="1.0" encoding="utf-8"?>
<svg version="1.1" xmlns:xlink="http://www.w3.org/1999/xlink" width="12px" height="12px" viewBox="299 383.5  12 12" xmlns="http://www.w3.org/2000/svg">
  <path d="M 305 383.5  C 308.36 383.5  311 386.14  311 389.5  C 311 392.86  308.36 395.5  305 395.5  C 301.64 395.5  299 392.86  299 389.5  C 299 386.14  301.64 383.5  305 383.5  Z " fill-rule="nonzero" fill="#ffffff" stroke="none" />
  <path d="M 305 384  C 308.08 384  310.5 386.42  310.5 389.5  C 310.5 392.58  308.08 395  305 395  C 301.92 395  299.5 392.58  299.5 389.5  C 299.5 386.42  301.92 384  305 384  Z " stroke-width="1" stroke="#797979" fill="none" />
  <path d="M 305 392.5  C 303.32 392.5  302 391.18  302 389.5  C 302 387.82  303.32 386.5  305 386.5  C 306.68 386.5  308 387.82  308 389.5  C 308 391.18  306.68 392.5  305 392.5  " fill-rule="nonzero" fill="#797979" stroke="none" />
</svg>