<?xml version="1.0" encoding="utf-8"?>
<svg version="1.1" xmlns:xlink="http://www.w3.org/1999/xlink" width="12px" height="12px" viewBox="299 352.5  12 12" xmlns="http://www.w3.org/2000/svg">
  <path d="M 305 352.5  C 308.36 352.5  311 355.14  311 358.5  C 311 361.86  308.36 364.5  305 364.5  C 301.64 364.5  299 361.86  299 358.5  C 299 355.14  301.64 352.5  305 352.5  Z " fill-rule="nonzero" fill="#ffffff" stroke="none" />
  <path d="M 305 353  C 308.08 353  310.5 355.42  310.5 358.5  C 310.5 361.58  308.08 364  305 364  C 301.92 364  299.5 361.58  299.5 358.5  C 299.5 355.42  301.92 353  305 353  Z " stroke-width="1" stroke="#797979" fill="none" />
  <path d="M 305 361.5  C 303.32 361.5  302 360.18  302 358.5  C 302 356.82  303.32 355.5  305 355.5  C 306.68 355.5  308 356.82  308 358.5  C 308 360.18  306.68 361.5  305 361.5  " fill-rule="nonzero" fill="#797979" stroke="none" />
</svg>