<?xml version="1.0" encoding="utf-8"?>
<svg version="1.1" xmlns:xlink="http://www.w3.org/1999/xlink" width="12px" height="12px" viewBox="529 352.5  12 12" xmlns="http://www.w3.org/2000/svg">
  <path d="M 535 352.5  C 538.36 352.5  541 355.14  541 358.5  C 541 361.86  538.36 364.5  535 364.5  C 531.64 364.5  529 361.86  529 358.5  C 529 355.14  531.64 352.5  535 352.5  Z " fill-rule="nonzero" fill="#ffffff" stroke="none" />
  <path d="M 535 353  C 538.08 353  540.5 355.42  540.5 358.5  C 540.5 361.58  538.08 364  535 364  C 531.92 364  529.5 361.58  529.5 358.5  C 529.5 355.42  531.92 353  535 353  Z " stroke-width="1" stroke="#797979" fill="none" />
  <path d="M 535 361.5  C 533.32 361.5  532 360.18  532 358.5  C 532 356.82  533.32 355.5  535 355.5  C 536.68 355.5  538 356.82  538 358.5  C 538 360.18  536.68 361.5  535 361.5  " fill-rule="nonzero" fill="#797979" stroke="none" />
</svg>