<?xml version="1.0" encoding="utf-8"?>
<svg version="1.1" xmlns:xlink="http://www.w3.org/1999/xlink" width="12px" height="12px" viewBox="808 383.5  12 12" xmlns="http://www.w3.org/2000/svg">
  <path d="M 814 383.5  C 817.36 383.5  820 386.14  820 389.5  C 820 392.86  817.36 395.5  814 395.5  C 810.64 395.5  808 392.86  808 389.5  C 808 386.14  810.64 383.5  814 383.5  Z " fill-rule="nonzero" fill="#ffffff" stroke="none" />
  <path d="M 814 384  C 817.08 384  819.5 386.42  819.5 389.5  C 819.5 392.58  817.08 395  814 395  C 810.92 395  808.5 392.58  808.5 389.5  C 808.5 386.42  810.92 384  814 384  Z " stroke-width="1" stroke="#797979" fill="none" />
  <path d="M 814 392.5  C 812.32 392.5  811 391.18  811 389.5  C 811 387.82  812.32 386.5  814 386.5  C 815.68 386.5  817 387.82  817 389.5  C 817 391.18  815.68 392.5  814 392.5  " fill-rule="nonzero" fill="#797979" stroke="none" />
</svg>