<?xml version="1.0" encoding="utf-8"?>
<svg version="1.1" xmlns:xlink="http://www.w3.org/1999/xlink" width="12px" height="12px" viewBox="808 352.5  12 12" xmlns="http://www.w3.org/2000/svg">
  <path d="M 814 352.5  C 817.36 352.5  820 355.14  820 358.5  C 820 361.86  817.36 364.5  814 364.5  C 810.64 364.5  808 361.86  808 358.5  C 808 355.14  810.64 352.5  814 352.5  Z " fill-rule="nonzero" fill="#ffffff" stroke="none" />
  <path d="M 814 353  C 817.08 353  819.5 355.42  819.5 358.5  C 819.5 361.58  817.08 364  814 364  C 810.92 364  808.5 361.58  808.5 358.5  C 808.5 355.42  810.92 353  814 353  Z " stroke-width="1" stroke="#797979" fill="none" />
  <path d="M 814 361.5  C 812.32 361.5  811 360.18  811 358.5  C 811 356.82  812.32 355.5  814 355.5  C 815.68 355.5  817 356.82  817 358.5  C 817 360.18  815.68 361.5  814 361.5  " fill-rule="nonzero" fill="#797979" stroke="none" />
</svg>